<svg fill="#03991B" height="800" width="800" xmlns="http://www.w3.org/2000/svg" viewBox="0 0 297 297" xml:space="preserve"><path d="M282.327 24.019h4.871c5.413 0 9.802-4.389 9.802-9.802s-4.389-9.802-9.802-9.802H9.802C4.389 4.415 0 8.804 0 14.217s4.389 9.802 9.802 9.802h4.872L1.613 273.065a9.803 9.803 0 0 0 9.788 10.316c4.922 0 6.922 1.204 10.234 3.198 4.211 2.536 9.978 6.008 20.346 6.008s16.134-3.472 20.345-6.008c3.312-1.994 5.312-3.198 10.234-3.198 4.92 0 6.92 1.204 10.232 3.198 4.21 2.536 9.976 6.008 20.344 6.008s16.134-3.472 20.344-6.008c3.312-1.994 5.312-3.198 10.232-3.198a9.8 9.8 0 0 0 8.187-15.192L89.541 188.66c17.154-5.297 35.342-20.529 46-57.835 6.579-23.027 7.728-45.724 7.929-53.263 1.831.051 3.642.078 5.43.078 1.527 0 3.072-.022 4.631-.058.202 7.558 1.355 30.236 7.928 53.244 10.659 37.306 28.846 52.537 46.001 57.835l-52.358 79.527a9.8 9.8 0 0 0 8.187 15.192c4.921 0 6.921 1.204 10.233 3.198 4.21 2.536 9.977 6.008 20.344 6.008 10.368 0 16.134-3.473 20.345-6.008 3.311-1.995 5.31-3.198 10.23-3.198 4.922 0 6.922 1.204 10.234 3.198 4.211 2.536 9.978 6.008 20.346 6.008s16.135-3.472 20.346-6.008c3.312-1.994 5.312-3.198 10.234-3.198a9.801 9.801 0 0 0 9.788-10.316L282.327 24.019zM117.831 267.282c-1.699.837-3.156 1.714-4.464 2.501-3.312 1.995-5.312 3.198-10.232 3.198s-6.92-1.203-10.232-3.198c-4.21-2.536-9.976-6.008-20.344-6.008s-16.135 3.472-20.346 6.008c-3.312 1.994-5.312 3.198-10.233 3.198-4.922 0-6.922-1.204-10.234-3.198-2.56-1.541-5.694-3.428-10.086-4.671l3.882-74.015h42.131l50.158 76.185zm-1.14-141.842c-8.731 30.557-23.445 46.052-43.736 46.052H26.571l6.708-127.911c20.156 17.237 56.604 28.656 90.613 32.562-.109 5.252-.937 27.377-7.201 49.297zM41.294 24.019h215.213C242.728 40.582 196.258 58.037 148.9 58.037S55.072 40.582 41.294 24.019zm131.818 52.217c33.811-3.771 70.18-15.002 90.644-32.012l6.674 127.269h-46.385c-47.075 0-50.666-83.866-50.933-95.257zm92.142 193.547c-3.312 1.994-5.312 3.198-10.234 3.198s-6.922-1.204-10.234-3.198c-4.211-2.536-9.978-6.008-20.346-6.008-10.367 0-16.133 3.472-20.343 6.008-3.312 1.995-5.311 3.198-10.232 3.198-4.92 0-6.92-1.203-10.232-3.198-1.308-.787-2.765-1.666-4.464-2.501l50.158-76.186h42.131l3.882 74.015c-4.393 1.244-7.527 3.131-10.086 4.672z"/></svg>