<svg width="80" height="83" fill="none" xmlns="http://www.w3.org/2000/svg"><g clip-path="url(#a)" fill="#03991B"><path d="M80 36.184V16.247H68.47V8.272h2.562V.297H50.535v7.975h2.562v7.975H33.941l-5.17-2.823L0 28.348l1.147 2.378 1.988-1.031v7.36l2.562-1.4v39.073H.573v7.975H80v-7.975h-2.562V36.184H80ZM53.097 2.955H68.47v2.659H53.097V2.955Zm12.811 5.317v7.975H55.66V8.272h10.25Zm11.53 10.633v7.975H53.414l-14.605-7.975h38.629Zm-2.562 17.279v38.544h-23.06v-39.07l.965.526h22.095ZM5.697 28.366l23.044-11.954 23.075 12.6v3.641l-23.06-12.592L5.697 32.653v-4.287Zm11.53 19.78v26.582H8.259v-40.47l20.498-11.193 20.497 11.193v40.47h-8.968V48.146h-23.06Zm20.497 2.658v23.924h-7.686V50.804h7.686Zm-10.248 0v23.924h-7.687V50.804h7.686Zm49.962 29.24H3.135v-2.657h74.302v2.658Zm-23.06-46.519v-3.987h23.06v3.987h-23.06Z"/><path d="M21.07 45.487h15.373v-15.95H21.07v15.95Zm8.967-13.29h3.844v3.986h-3.844v-3.987Zm0 6.645h3.844v3.987h-3.844v-3.987Zm-6.405-6.646h3.843v3.988h-3.843v-3.988Zm0 6.646h3.843v3.987h-3.843v-3.987Zm47.4 0H55.66v22.595h15.373V38.842ZM68.47 58.779H58.221V56.12H68.47v2.659Zm0-5.317H58.221V41.5H68.47v11.962Zm2.562 10.633H55.66v2.659h15.373v-2.659Z"/></g><defs><clipPath id="a"><path fill="#fff" d="M0 0h80v83H0z"/></clipPath></defs></svg>