<svg width="75" height="85" fill="none" xmlns="http://www.w3.org/2000/svg"><path clip-rule="evenodd" d="M1 6.726h14.79v3.34h28.151v-3.34H59.21v43.418h-1.908c-1.909 0-3.34 0-4.772.477V14.837H15.314l-7.157 6.202v45.327H40.6v.477c0 2.386.477 4.772 1.432 6.68H1V6.726v0Z" stroke="#03991B" stroke-width="1.808" stroke-miterlimit="22.926" stroke-linecap="round" stroke-linejoin="round"/><path clip-rule="evenodd" d="M15.791 3.385h8.588v.955h10.497v-.954h9.065v6.68h-28.15v-6.68Z" stroke="#03991B" stroke-width="1.808" stroke-miterlimit="22.926" stroke-linecap="round" stroke-linejoin="round"/><path d="M34.876 1H24.379v3.34h10.497V1Z" stroke="#03991B" stroke-width="1.808" stroke-miterlimit="22.926" stroke-linecap="round" stroke-linejoin="round"/><path clip-rule="evenodd" d="M15.314 14.837h37.215V50.62c-6.68 1.908-11.928 8.111-11.928 15.745H8.157V21.04l7.157-6.202v0Z" stroke="#03991B" stroke-width="1.808" stroke-miterlimit="22.926" stroke-linecap="round" stroke-linejoin="round"/><path clip-rule="evenodd" d="m15.314 14.837-7.157 6.202h7.157v-6.202Z" stroke="#03991B" stroke-width=".904" stroke-miterlimit="22.926" stroke-linecap="round" stroke-linejoin="round"/><path d="M21.04 27.242h-7.158v6.68h7.157v-6.68Zm0 13.359h-7.158v6.68h7.157v-6.68Zm0 12.406h-7.158v6.68h7.157v-6.68Zm4.294-23.38H47.28m-21.47 2.386h13.36M25.334 42.51H47.28m-21.47 2.385h13.36M25.334 55.392h19.562M25.81 57.778h13.36" stroke="#03991B" stroke-width=".904" stroke-miterlimit="22.926" stroke-linecap="round" stroke-linejoin="round"/><path d="m15.314 30.582 1.909 1.908 2.862-3.817m-4.771 14.791 1.909 2.386 2.862-3.817m-4.771 14.313 1.909 1.909 2.862-3.817" stroke="#03991B" stroke-width=".904" stroke-miterlimit="22.926" stroke-linecap="round" stroke-linejoin="round"/><path d="M57.3 83.543c9.223 0 16.7-7.477 16.7-16.7 0-9.223-7.477-16.7-16.7-16.7-9.222 0-16.699 7.477-16.699 16.7 0 9.223 7.477 16.7 16.7 16.7Z" stroke="#03991B" stroke-width="1.808" stroke-miterlimit="22.926"/><path d="M66.843 64.457h-5.248v10.497h5.248V64.458Zm-5.248.955c-.954-.955-2.386-1.909-2.863-2.863-.954-.477-1.431-1.431-1.431-1.908-.477-.478-.477-1.432-.477-1.909-.477-.954-.477-1.431-.477-1.908 0 0 0-.478-.477-.478h-.955c-.477 0-.477 0-.477.478-.477.477-.477.954-.477 1.908-.477.477-.477 1.431 0 2.386 0 .954 0 1.431.477 2.385 0 .477.477.477.477.477 0 .478-.477.478-1.431.478h-5.726c0 .477-.477.954-.477.954v.954c.477.477.477.954.955.954v.477c-.478 0-.478 0-.478.478v.477c.477.477.477.954.477.954.478 0 .478 0 .478.477s-.477.477-.477.954.477.477.477.954c.477.478.954.478.954.478v.954s0 .477.477.954c0 0 .477.477 1.909.477 1.43 0 3.817 0 5.725-.477 1.909 0 2.863-.477 3.817-.954" stroke="#03991B" stroke-width=".904" stroke-miterlimit="22.926"/></svg>