<svg fill="#03991B" height="60" width="60" xmlns="http://www.w3.org/2000/svg" viewBox="0 0 470 470"><path d="M466.282 216.918 242.5 86.235V65.468l56.798-24.564a7.501 7.501 0 0 0 0-13.768L237.978.616A7.498 7.498 0 0 0 227.5 7.5v52.874a6.386 6.386 0 0 0 0 .339v25.522L3.718 216.918A7.498 7.498 0 0 0 0 223.394V462.5a7.5 7.5 0 0 0 7.5 7.5h455a7.5 7.5 0 0 0 7.5-7.5V223.394a7.498 7.498 0 0 0-3.718-6.476zM242.5 18.915l34.927 15.105L242.5 49.125v-30.21zm56.387 283.369v-31.39h45v31.39h-45zm-15 0h-97.773v-31.39h97.773v31.39zm-112.774 0h-45v-31.39h45v31.39zm142.774 15V455H156.113V317.284h157.774zm15 137.716V317.284h22.5a7.5 7.5 0 0 0 7.5-7.5v-46.39a7.5 7.5 0 0 0-7.5-7.5h-52.5v-2.5c0-4.142-3.357-7.5-7.5-7.5s-7.5 3.358-7.5 7.5v2.5h-97.773v-2.5c0-4.142-3.357-7.5-7.5-7.5s-7.5 3.358-7.5 7.5v2.5h-52.5a7.5 7.5 0 0 0-7.5 7.5v46.39a7.5 7.5 0 0 0 7.5 7.5h22.5V455H15v-35h103.613c4.143 0 7.5-3.358 7.5-7.5s-3.357-7.5-7.5-7.5H15V230.894h61.5c4.143 0 7.5-3.358 7.5-7.5s-3.357-7.5-7.5-7.5H35.215L235 99.225l199.785 116.669H106.5c-4.143 0-7.5 3.358-7.5 7.5s3.357 7.5 7.5 7.5H455V405H351.387c-4.143 0-7.5 3.358-7.5 7.5s3.357 7.5 7.5 7.5H455v35H328.887z"/><path d="M250.66 165.686c12.406 0 22.5-10.093 22.5-22.5 0-4.142-3.357-7.5-7.5-7.5s-7.5 3.358-7.5 7.5c0 4.136-3.364 7.5-7.5 7.5s-7.5-3.364-7.5-7.5c0-4.142-3.357-7.5-7.5-7.5s-7.5 3.358-7.5 7.5c0 12.406 10.094 22.5 22.5 22.5zm52.386 30.592c12.406 0 22.5-10.093 22.5-22.5 0-4.142-3.357-7.5-7.5-7.5s-7.5 3.358-7.5 7.5c0 4.136-3.364 7.5-7.5 7.5s-7.5-3.364-7.5-7.5c0-4.142-3.357-7.5-7.5-7.5s-7.5 3.358-7.5 7.5c0 12.407 10.094 22.5 22.5 22.5z"/></svg>