<svg width="61" height="85" fill="none" xmlns="http://www.w3.org/2000/svg"><path d="M55.356 54.567H44.772c-4.516 0-5.382-.76-5.382-1.976 0-1.388 2.259-3.821 2.778-4.69.524-.869 3.82-3.821 4.516-8.166.695-4.34-4.516-7.468-6.252-4.514-1.03 1.754-3.647 6.947-6.773 9.207-5.8 4.189-10.596 13.31-16.64 13.31v19.66c4.978 0 16.262 5.532 20.257 6.334 4.526.905 10.438 2.905 13.576-1.357 1.936-2.628 4.968-9.704 7.243-16.941 5.774-5.546 1.787-10.867-2.74-10.867Zm-8.299-36.904h-1.242v10.173h1.242V17.663Zm2.711 13.477 1.245-.004-.044-10.171-1.245.002.044 10.174ZM0 62.863v16.68a4.432 4.432 0 0 0 4.433 4.43h5.29a2.954 2.954 0 0 0 2.954-2.952V58.433H4.433A4.432 4.432 0 0 0 0 62.863ZM46.785 7.149a1.002 1.002 0 0 0 .369.353.897.897 0 0 0 .23.078c.078.01.154.012.22-.006l1.47-.334.614 1.066a4.8 4.8 0 0 0 .747.973c.285.282.6.526.926.716.327.189.67.326.996.399.33.073.651.078.942.016a1.38 1.38 0 0 0 .703-.397c.181-.192.298-.433.352-.714a2.302 2.302 0 0 0-.018-.928 3.623 3.623 0 0 0-.412-1.04l-1.087-1.886a.967.967 0 0 0-.16-.2.727.727 0 0 0-.211-.145.757.757 0 0 0-.226-.08.63.63 0 0 0-.22 0l-5.196 1.193a.38.38 0 0 0-.174.088.357.357 0 0 0-.096.155.497.497 0 0 0-.01.198c.01.07.039.148.086.22l.155.275Zm5.409-.63.617 1.066c.096.169.161.337.197.495.032.156.034.306.006.439a.639.639 0 0 1-.167.337.66.66 0 0 1-.331.19.975.975 0 0 1-.45-.009 1.576 1.576 0 0 1-.471-.191 2.192 2.192 0 0 1-.789-.797l-.617-1.066 2.005-.464Z" fill="#03991B"/><path d="M45.143 14.557c2.288 1.998 5.074 3.188 7.45 3.188 1.595 0 2.898-.521 3.754-1.51l1.896-2.173c1.084-1.24 1.338-3.064.716-5.134-.61-2.033-1.998-4.075-3.907-5.74C52.762 1.193 49.976 0 47.6 0c-1.598 0-2.898.524-3.756 1.51l-1.892 2.174c-1.081 1.242-1.338 3.066-.718 5.133.612 2.036 1.997 4.075 3.91 5.74Zm-.03-11.942c.539-.615 1.395-.942 2.48-.942 1.95 0 4.383 1.066 6.352 2.78 1.572 1.37 2.752 3.033 3.323 4.683.56 1.608.456 2.968-.29 3.824-.538.614-1.396.941-2.48.941-1.951 0-4.387-1.066-6.359-2.783-1.569-1.367-2.75-3.027-3.32-4.68-.555-1.608-.454-2.967.293-3.823Z" fill="#03991B"/></svg>