<svg width="32" height="32" fill="none" xmlns="http://www.w3.org/2000/svg"><path d="M21.82 5.5h6a23.34 23.34 0 0 1-7.6 14.92 23.42 23.42 0 0 1-15.76 6H2.92V20.8L8 19.04l1.68 2.84L10.86 24 13 22.76a28.72 28.72 0 0 0 9.54-9l1.46-2.3-2.44-1.28-2-1.04 2.18-3.64m0-2.5a2.52 2.52 0 0 0-2.14 1.22l-2.1 3.64a2.477 2.477 0 0 0 .98 3.5l2 1.04a26.12 26.12 0 0 1-8.72 8.2L10 17.78a2.5 2.5 0 0 0-2-1.24c-.28 0-.557.047-.82.14L2 18.44A2.5 2.5 0 0 0 .42 20.8v5.7a2.5 2.5 0 0 0 2.5 2.5h1.5A26 26 0 0 0 30.28 5.76 2.52 2.52 0 0 0 27.78 3h-6.04Z" fill="#fff"/></svg>