<svg width="80" height="79" fill="none" xmlns="http://www.w3.org/2000/svg"><g clip-path="url(#a)"><path d="M78.704 66.885h-2.85V64.07a2.642 2.642 0 0 0-1.444-2.344c.04-.122.06-.251.06-.386V31.225h2.852c.474 0 .91-.256 1.137-.667.227-.41.21-.911-.047-1.305l-12.44-19.11a1.3 1.3 0 0 0-1.09-.588H15.118a1.3 1.3 0 0 0-1.09.588l-12.44 19.11a1.266 1.266 0 0 0-.048 1.305c.227.411.663.667 1.137.667H5.53V61.34c0 .135.021.264.06.386a2.642 2.642 0 0 0-1.442 2.344v2.816H1.296c-.716 0-1.296.573-1.296 1.28 0 .706.58 1.279 1.296 1.279h77.408c.716 0 1.296-.573 1.296-1.28 0-.707-.58-1.28-1.296-1.28Zm-15.291-5.46v-11.09h2.937v11.09h-2.937Zm-5.53 0v-11.09h2.938v11.09h-2.938Zm-5.529 0v-11.09h2.938v11.09h-2.938Zm-22.116 0v-22.76l7.534-7.44h4.456l7.534 7.44v22.76H30.238Zm-5.53 0v-11.09h2.938v11.09h-2.938Zm-5.529 0v-11.09h2.938v11.09h-2.938Zm-5.529 0v-11.09h2.937v11.09H13.65Zm-5.533 0c.002-.028.004-.056.004-.085V50.335h2.937v11.09H8.117Zm11.994-30.2 7.535 7.44v9.11H8.12v-9.11l7.534-7.44h4.456Zm27.913-19.11 4.144 16.55H27.832l4.145-16.55h16.047Zm16.32 19.11 7.535 7.44v9.11H52.354v-9.11l7.535-7.44h4.455Zm-18.451 0h3.87v3.82l-3.87-3.82Zm6.461 3.82v-3.82h3.87l-3.87 3.82Zm-22.116 0v-3.82h3.869l-3.87 3.82Zm-2.592-3.82v3.82l-3.87-3.82h3.87Zm41.296 19.11h2.937V61.34c0 .029.002.057.004.085h-2.941v-11.09Zm2.937-15.29-3.87-3.82h3.87v3.82Zm3.07-6.38H54.837l-4.144-16.55h13.48l10.774 16.55Zm-59.123-16.55h13.48l-4.143 16.55H5.052l10.774-16.55Zm-3.836 19.11-3.869 3.82v-3.82h3.87ZM6.74 64.07c0-.047.038-.085.086-.085h66.35c.048 0 .086.038.086.085v2.816H6.74V64.07Z" fill="#03991B"/></g><defs><clipPath id="a"><path fill="#fff" d="M0 0h80v79H0z"/></clipPath></defs></svg>